<svg width="7" height="14" viewBox="0 0 7 14" fill="none" xmlns="http://www.w3.org/2000/svg">
<path d="M1.5086 13.4811C1.29528 13.4811 1.11292 13.4071 0.961525 13.2592C0.810132 13.1112 0.734436 12.9306 0.734436 12.7172C0.734436 12.5039 0.813573 12.3181 0.971847 12.1598L5.14202 7.99998L0.971847 3.84013C0.813573 3.68185 0.734436 3.49605 0.734436 3.28273C0.734436 3.0694 0.810132 2.88876 0.961525 2.74081C1.11292 2.59286 1.29528 2.51888 1.5086 2.51888C1.70817 2.51888 1.88708 2.59114 2.04536 2.73565L6.75229 7.42194C6.91745 7.57333 7.00002 7.76601 7.00002 7.99998C7.00002 8.22019 6.91745 8.41287 6.75229 8.57802L2.04536 13.2643C1.90085 13.4088 1.72193 13.4811 1.5086 13.4811Z" fill="#0066CC"/>
</svg>



